<?xml version="1.0" encoding="UTF-8" standalone="no"?>
<!DOCTYPE svg PUBLIC "-//W3C//DTD SVG 1.1//EN"
 "http://www.w3.org/Graphics/SVG/1.1/DTD/svg11.dtd">
<!-- Generated by graphviz version 2.43.0 (0)
 -->
<!-- Title: snakemake_dag Pages: 1 -->
<svg width="818pt" height="404pt"
 viewBox="0.00 0.00 817.77 404.00" xmlns="http://www.w3.org/2000/svg" xmlns:xlink="http://www.w3.org/1999/xlink">
<g id="graph0" class="graph" transform="scale(1 1) rotate(0) translate(4 400)">
<title>snakemake_dag</title>
<polygon fill="white" stroke="transparent" points="-4,4 -4,-400 813.77,-400 813.77,4 -4,4"/>
<!-- 0 -->
<g id="node1" class="node">
<title>0</title>
<path fill="none" stroke="#c6d856" stroke-width="2" stroke-dasharray="5,2" d="M358.77,-36C358.77,-36 328.77,-36 328.77,-36 322.77,-36 316.77,-30 316.77,-24 316.77,-24 316.77,-12 316.77,-12 316.77,-6 322.77,0 328.77,0 328.77,0 358.77,0 358.77,0 364.77,0 370.77,-6 370.77,-12 370.77,-12 370.77,-24 370.77,-24 370.77,-30 364.77,-36 358.77,-36"/>
<text text-anchor="middle" x="343.77" y="-15.5" font-family="sans" font-size="10.00">all</text>
</g>
<!-- 1 -->
<g id="node2" class="node">
<title>1</title>
<path fill="none" stroke="#56d87b" stroke-width="2" stroke-dasharray="5,2" d="M369.27,-396C369.27,-396 304.27,-396 304.27,-396 298.27,-396 292.27,-390 292.27,-384 292.27,-384 292.27,-372 292.27,-372 292.27,-366 298.27,-360 304.27,-360 304.27,-360 369.27,-360 369.27,-360 375.27,-360 381.27,-366 381.27,-372 381.27,-372 381.27,-384 381.27,-384 381.27,-390 375.27,-396 369.27,-396"/>
<text text-anchor="middle" x="336.77" y="-375.5" font-family="sans" font-size="10.00">index_genome</text>
</g>
<!-- 1&#45;&gt;0 -->
<g id="edge1" class="edge">
<title>1&#45;&gt;0</title>
<path fill="none" stroke="grey" stroke-width="2" d="M292.01,-375.24C215.24,-371.31 63.06,-359.17 24.77,-324 -5.31,-296.36 1.77,-275.86 1.77,-235 1.77,-235 1.77,-235 1.77,-161 1.77,-108.98 32.9,-98.31 77.77,-72 150.7,-29.24 252.16,-20.39 306.27,-18.92"/>
<polygon fill="grey" stroke="grey" stroke-width="2" points="306.51,-22.41 316.44,-18.71 306.37,-15.41 306.51,-22.41"/>
</g>
<!-- 6 -->
<g id="node7" class="node">
<title>6</title>
<path fill="none" stroke="#56d8c9" stroke-width="2" stroke-dasharray="5,2" d="M159.27,-324C159.27,-324 46.27,-324 46.27,-324 40.27,-324 34.27,-318 34.27,-312 34.27,-312 34.27,-300 34.27,-300 34.27,-294 40.27,-288 46.27,-288 46.27,-288 159.27,-288 159.27,-288 165.27,-288 171.27,-294 171.27,-300 171.27,-300 171.27,-312 171.27,-312 171.27,-318 165.27,-324 159.27,-324"/>
<text text-anchor="middle" x="102.77" y="-309" font-family="sans" font-size="10.00">bwa_map_prog</text>
<text text-anchor="middle" x="102.77" y="-298" font-family="sans" font-size="10.00">sample: /Astro1_MTHFR.</text>
</g>
<!-- 1&#45;&gt;6 -->
<g id="edge12" class="edge">
<title>1&#45;&gt;6</title>
<path fill="none" stroke="grey" stroke-width="2" d="M292.21,-363.67C257.49,-353.28 208.74,-338.7 169.39,-326.93"/>
<polygon fill="grey" stroke="grey" stroke-width="2" points="170.19,-323.52 159.61,-324 168.18,-330.22 170.19,-323.52"/>
</g>
<!-- 10 -->
<g id="node11" class="node">
<title>10</title>
<path fill="none" stroke="#56d8c9" stroke-width="2" stroke-dasharray="5,2" d="M316.27,-324C316.27,-324 203.27,-324 203.27,-324 197.27,-324 191.27,-318 191.27,-312 191.27,-312 191.27,-300 191.27,-300 191.27,-294 197.27,-288 203.27,-288 203.27,-288 316.27,-288 316.27,-288 322.27,-288 328.27,-294 328.27,-300 328.27,-300 328.27,-312 328.27,-312 328.27,-318 322.27,-324 316.27,-324"/>
<text text-anchor="middle" x="259.77" y="-309" font-family="sans" font-size="10.00">bwa_map_prog</text>
<text text-anchor="middle" x="259.77" y="-298" font-family="sans" font-size="10.00">sample: /Astro4_MTHFR.</text>
</g>
<!-- 1&#45;&gt;10 -->
<g id="edge17" class="edge">
<title>1&#45;&gt;10</title>
<path fill="none" stroke="grey" stroke-width="2" d="M317.74,-359.7C308.23,-351.05 296.56,-340.45 286.2,-331.03"/>
<polygon fill="grey" stroke="grey" stroke-width="2" points="288.34,-328.24 278.59,-324.1 283.63,-333.42 288.34,-328.24"/>
</g>
<!-- 14 -->
<g id="node15" class="node">
<title>14</title>
<path fill="none" stroke="#56d8c9" stroke-width="2" stroke-dasharray="5,2" d="M472.27,-324C472.27,-324 359.27,-324 359.27,-324 353.27,-324 347.27,-318 347.27,-312 347.27,-312 347.27,-300 347.27,-300 347.27,-294 353.27,-288 359.27,-288 359.27,-288 472.27,-288 472.27,-288 478.27,-288 484.27,-294 484.27,-300 484.27,-300 484.27,-312 484.27,-312 484.27,-318 478.27,-324 472.27,-324"/>
<text text-anchor="middle" x="415.77" y="-309" font-family="sans" font-size="10.00">bwa_map_prog</text>
<text text-anchor="middle" x="415.77" y="-298" font-family="sans" font-size="10.00">sample: /Astro5_MTHFR.</text>
</g>
<!-- 1&#45;&gt;14 -->
<g id="edge22" class="edge">
<title>1&#45;&gt;14</title>
<path fill="none" stroke="grey" stroke-width="2" d="M356.3,-359.7C366.15,-350.97 378.26,-340.24 388.97,-330.75"/>
<polygon fill="grey" stroke="grey" stroke-width="2" points="391.3,-333.36 396.47,-324.1 386.66,-328.12 391.3,-333.36"/>
</g>
<!-- 18 -->
<g id="node19" class="node">
<title>18</title>
<path fill="none" stroke="#56d8c9" stroke-width="2" stroke-dasharray="5,2" d="M628.27,-324C628.27,-324 515.27,-324 515.27,-324 509.27,-324 503.27,-318 503.27,-312 503.27,-312 503.27,-300 503.27,-300 503.27,-294 509.27,-288 515.27,-288 515.27,-288 628.27,-288 628.27,-288 634.27,-288 640.27,-294 640.27,-300 640.27,-300 640.27,-312 640.27,-312 640.27,-318 634.27,-324 628.27,-324"/>
<text text-anchor="middle" x="571.77" y="-309" font-family="sans" font-size="10.00">bwa_map_prog</text>
<text text-anchor="middle" x="571.77" y="-298" font-family="sans" font-size="10.00">sample: /Astro3_MTHFR.</text>
</g>
<!-- 1&#45;&gt;18 -->
<g id="edge27" class="edge">
<title>1&#45;&gt;18</title>
<path fill="none" stroke="grey" stroke-width="2" d="M381.53,-363.67C416.39,-353.28 465.35,-338.7 504.86,-326.93"/>
<polygon fill="grey" stroke="grey" stroke-width="2" points="506.11,-330.21 514.69,-324 504.11,-323.5 506.11,-330.21"/>
</g>
<!-- 22 -->
<g id="node23" class="node">
<title>22</title>
<path fill="none" stroke="#56d8c9" stroke-width="2" stroke-dasharray="5,2" d="M783.27,-324C783.27,-324 670.27,-324 670.27,-324 664.27,-324 658.27,-318 658.27,-312 658.27,-312 658.27,-300 658.27,-300 658.27,-294 664.27,-288 670.27,-288 670.27,-288 783.27,-288 783.27,-288 789.27,-288 795.27,-294 795.27,-300 795.27,-300 795.27,-312 795.27,-312 795.27,-318 789.27,-324 783.27,-324"/>
<text text-anchor="middle" x="726.77" y="-309" font-family="sans" font-size="10.00">bwa_map_prog</text>
<text text-anchor="middle" x="726.77" y="-298" font-family="sans" font-size="10.00">sample: /Astro2_MTHFR.</text>
</g>
<!-- 1&#45;&gt;22 -->
<g id="edge32" class="edge">
<title>1&#45;&gt;22</title>
<path fill="none" stroke="grey" stroke-width="2" d="M381.32,-370.1C440.02,-360.86 546.68,-343.56 647.82,-324.14"/>
<polygon fill="grey" stroke="grey" stroke-width="2" points="648.75,-327.52 657.9,-322.19 647.42,-320.65 648.75,-327.52"/>
</g>
<!-- 2 -->
<g id="node3" class="node">
<title>2</title>
<path fill="none" stroke="#78d856" stroke-width="2" stroke-dasharray="5,2" d="M381.77,-252C381.77,-252 311.77,-252 311.77,-252 305.77,-252 299.77,-246 299.77,-240 299.77,-240 299.77,-228 299.77,-228 299.77,-222 305.77,-216 311.77,-216 311.77,-216 381.77,-216 381.77,-216 387.77,-216 393.77,-222 393.77,-228 393.77,-228 393.77,-240 393.77,-240 393.77,-246 387.77,-252 381.77,-252"/>
<text text-anchor="middle" x="346.77" y="-231.5" font-family="sans" font-size="10.00">samtools_index</text>
</g>
<!-- 2&#45;&gt;0 -->
<g id="edge2" class="edge">
<title>2&#45;&gt;0</title>
<path fill="none" stroke="grey" stroke-width="2" d="M346.53,-215.85C346.01,-178.83 344.78,-91.18 344.16,-46.39"/>
<polygon fill="grey" stroke="grey" stroke-width="2" points="347.65,-46.18 344.01,-36.23 340.65,-46.28 347.65,-46.18"/>
</g>
<!-- 4 -->
<g id="node5" class="node">
<title>4</title>
<path fill="none" stroke="#56a2d8" stroke-width="2" stroke-dasharray="5,2" d="M151.77,-180C151.77,-180 41.77,-180 41.77,-180 35.77,-180 29.77,-174 29.77,-168 29.77,-168 29.77,-156 29.77,-156 29.77,-150 35.77,-144 41.77,-144 41.77,-144 151.77,-144 151.77,-144 157.77,-144 163.77,-150 163.77,-156 163.77,-156 163.77,-168 163.77,-168 163.77,-174 157.77,-180 151.77,-180"/>
<text text-anchor="middle" x="96.77" y="-165" font-family="sans" font-size="10.00">bcftools_mpileup_all</text>
<text text-anchor="middle" x="96.77" y="-154" font-family="sans" font-size="10.00">sample: /Astro1_MTHFR</text>
</g>
<!-- 2&#45;&gt;4 -->
<g id="edge10" class="edge">
<title>2&#45;&gt;4</title>
<path fill="none" stroke="grey" stroke-width="2" d="M299.52,-218.82C296.22,-217.86 292.95,-216.91 289.77,-216 250.38,-204.72 206.33,-192.59 170.27,-182.78"/>
<polygon fill="grey" stroke="grey" stroke-width="2" points="170.89,-179.32 160.32,-180.08 169.06,-186.08 170.89,-179.32"/>
</g>
<!-- 8 -->
<g id="node9" class="node">
<title>8</title>
<path fill="none" stroke="#56a2d8" stroke-width="2" stroke-dasharray="5,2" d="M303.77,-180C303.77,-180 193.77,-180 193.77,-180 187.77,-180 181.77,-174 181.77,-168 181.77,-168 181.77,-156 181.77,-156 181.77,-150 187.77,-144 193.77,-144 193.77,-144 303.77,-144 303.77,-144 309.77,-144 315.77,-150 315.77,-156 315.77,-156 315.77,-168 315.77,-168 315.77,-174 309.77,-180 303.77,-180"/>
<text text-anchor="middle" x="248.77" y="-165" font-family="sans" font-size="10.00">bcftools_mpileup_all</text>
<text text-anchor="middle" x="248.77" y="-154" font-family="sans" font-size="10.00">sample: /Astro4_MTHFR</text>
</g>
<!-- 2&#45;&gt;8 -->
<g id="edge15" class="edge">
<title>2&#45;&gt;8</title>
<path fill="none" stroke="grey" stroke-width="2" d="M322.8,-215.88C310.22,-206.89 294.64,-195.76 281.02,-186.03"/>
<polygon fill="grey" stroke="grey" stroke-width="2" points="283.01,-183.15 272.84,-180.19 278.94,-188.85 283.01,-183.15"/>
</g>
<!-- 12 -->
<g id="node13" class="node">
<title>12</title>
<path fill="none" stroke="#56a2d8" stroke-width="2" stroke-dasharray="5,2" d="M493.77,-180C493.77,-180 383.77,-180 383.77,-180 377.77,-180 371.77,-174 371.77,-168 371.77,-168 371.77,-156 371.77,-156 371.77,-150 377.77,-144 383.77,-144 383.77,-144 493.77,-144 493.77,-144 499.77,-144 505.77,-150 505.77,-156 505.77,-156 505.77,-168 505.77,-168 505.77,-174 499.77,-180 493.77,-180"/>
<text text-anchor="middle" x="438.77" y="-165" font-family="sans" font-size="10.00">bcftools_mpileup_all</text>
<text text-anchor="middle" x="438.77" y="-154" font-family="sans" font-size="10.00">sample: /Astro5_MTHFR</text>
</g>
<!-- 2&#45;&gt;12 -->
<g id="edge20" class="edge">
<title>2&#45;&gt;12</title>
<path fill="none" stroke="grey" stroke-width="2" d="M369.51,-215.7C381.21,-206.8 395.63,-195.82 408.28,-186.2"/>
<polygon fill="grey" stroke="grey" stroke-width="2" points="410.45,-188.94 416.29,-180.1 406.21,-183.37 410.45,-188.94"/>
</g>
<!-- 16 -->
<g id="node17" class="node">
<title>16</title>
<path fill="none" stroke="#56a2d8" stroke-width="2" stroke-dasharray="5,2" d="M645.77,-180C645.77,-180 535.77,-180 535.77,-180 529.77,-180 523.77,-174 523.77,-168 523.77,-168 523.77,-156 523.77,-156 523.77,-150 529.77,-144 535.77,-144 535.77,-144 645.77,-144 645.77,-144 651.77,-144 657.77,-150 657.77,-156 657.77,-156 657.77,-168 657.77,-168 657.77,-174 651.77,-180 645.77,-180"/>
<text text-anchor="middle" x="590.77" y="-165" font-family="sans" font-size="10.00">bcftools_mpileup_all</text>
<text text-anchor="middle" x="590.77" y="-154" font-family="sans" font-size="10.00">sample: /Astro3_MTHFR</text>
</g>
<!-- 2&#45;&gt;16 -->
<g id="edge25" class="edge">
<title>2&#45;&gt;16</title>
<path fill="none" stroke="grey" stroke-width="2" d="M393.8,-218.65C396.84,-217.75 399.85,-216.86 402.77,-216 441.15,-204.77 484.06,-192.64 519.18,-182.82"/>
<polygon fill="grey" stroke="grey" stroke-width="2" points="520.18,-186.18 528.87,-180.12 518.3,-179.43 520.18,-186.18"/>
</g>
<!-- 20 -->
<g id="node21" class="node">
<title>20</title>
<path fill="none" stroke="#56a2d8" stroke-width="2" stroke-dasharray="5,2" d="M797.77,-180C797.77,-180 687.77,-180 687.77,-180 681.77,-180 675.77,-174 675.77,-168 675.77,-168 675.77,-156 675.77,-156 675.77,-150 681.77,-144 687.77,-144 687.77,-144 797.77,-144 797.77,-144 803.77,-144 809.77,-150 809.77,-156 809.77,-156 809.77,-168 809.77,-168 809.77,-174 803.77,-180 797.77,-180"/>
<text text-anchor="middle" x="742.77" y="-165" font-family="sans" font-size="10.00">bcftools_mpileup_all</text>
<text text-anchor="middle" x="742.77" y="-154" font-family="sans" font-size="10.00">sample: /Astro2_MTHFR</text>
</g>
<!-- 2&#45;&gt;20 -->
<g id="edge30" class="edge">
<title>2&#45;&gt;20</title>
<path fill="none" stroke="grey" stroke-width="2" d="M393.99,-218.09C396.95,-217.33 399.89,-216.63 402.77,-216 515.3,-191.41 548.42,-200.41 665.61,-180.11"/>
<polygon fill="grey" stroke="grey" stroke-width="2" points="666.46,-183.51 675.7,-178.33 665.24,-176.62 666.46,-183.51"/>
</g>
<!-- 3 -->
<g id="node4" class="node">
<title>3</title>
<path fill="none" stroke="#d85656" stroke-width="2" stroke-dasharray="5,2" d="M152.27,-108C152.27,-108 99.27,-108 99.27,-108 93.27,-108 87.27,-102 87.27,-96 87.27,-96 87.27,-84 87.27,-84 87.27,-78 93.27,-72 99.27,-72 99.27,-72 152.27,-72 152.27,-72 158.27,-72 164.27,-78 164.27,-84 164.27,-84 164.27,-96 164.27,-96 164.27,-102 158.27,-108 152.27,-108"/>
<text text-anchor="middle" x="125.77" y="-87.5" font-family="sans" font-size="10.00">bcftools_call</text>
</g>
<!-- 3&#45;&gt;0 -->
<g id="edge3" class="edge">
<title>3&#45;&gt;0</title>
<path fill="none" stroke="grey" stroke-width="2" d="M164.49,-76.57C204.87,-63.6 267.69,-43.43 307.23,-30.73"/>
<polygon fill="grey" stroke="grey" stroke-width="2" points="308.31,-34.06 316.76,-27.67 306.17,-27.4 308.31,-34.06"/>
</g>
<!-- 4&#45;&gt;3 -->
<g id="edge8" class="edge">
<title>4&#45;&gt;3</title>
<path fill="none" stroke="grey" stroke-width="2" d="M103.94,-143.7C107.21,-135.81 111.15,-126.3 114.77,-117.55"/>
<polygon fill="grey" stroke="grey" stroke-width="2" points="118.09,-118.68 118.69,-108.1 111.62,-116 118.09,-118.68"/>
</g>
<!-- 5 -->
<g id="node6" class="node">
<title>5</title>
<path fill="none" stroke="#d8a456" stroke-width="2" stroke-dasharray="5,2" d="M138.27,-252C138.27,-252 49.27,-252 49.27,-252 43.27,-252 37.27,-246 37.27,-240 37.27,-240 37.27,-228 37.27,-228 37.27,-222 43.27,-216 49.27,-216 49.27,-216 138.27,-216 138.27,-216 144.27,-216 150.27,-222 150.27,-228 150.27,-228 150.27,-240 150.27,-240 150.27,-246 144.27,-252 138.27,-252"/>
<text text-anchor="middle" x="93.77" y="-231.5" font-family="sans" font-size="10.00">samtools_sort_prog</text>
</g>
<!-- 5&#45;&gt;4 -->
<g id="edge9" class="edge">
<title>5&#45;&gt;4</title>
<path fill="none" stroke="grey" stroke-width="2" d="M94.51,-215.7C94.84,-207.98 95.24,-198.71 95.61,-190.11"/>
<polygon fill="grey" stroke="grey" stroke-width="2" points="99.11,-190.25 96.04,-180.1 92.11,-189.95 99.11,-190.25"/>
</g>
<!-- 6&#45;&gt;5 -->
<g id="edge11" class="edge">
<title>6&#45;&gt;5</title>
<path fill="none" stroke="grey" stroke-width="2" d="M100.55,-287.7C99.55,-279.98 98.36,-270.71 97.26,-262.11"/>
<polygon fill="grey" stroke="grey" stroke-width="2" points="100.72,-261.58 95.97,-252.1 93.77,-262.47 100.72,-261.58"/>
</g>
<!-- 7 -->
<g id="node8" class="node">
<title>7</title>
<path fill="none" stroke="#d85656" stroke-width="2" stroke-dasharray="5,2" d="M289.27,-108C289.27,-108 236.27,-108 236.27,-108 230.27,-108 224.27,-102 224.27,-96 224.27,-96 224.27,-84 224.27,-84 224.27,-78 230.27,-72 236.27,-72 236.27,-72 289.27,-72 289.27,-72 295.27,-72 301.27,-78 301.27,-84 301.27,-84 301.27,-96 301.27,-96 301.27,-102 295.27,-108 289.27,-108"/>
<text text-anchor="middle" x="262.77" y="-87.5" font-family="sans" font-size="10.00">bcftools_call</text>
</g>
<!-- 7&#45;&gt;0 -->
<g id="edge4" class="edge">
<title>7&#45;&gt;0</title>
<path fill="none" stroke="grey" stroke-width="2" d="M282.79,-71.7C292.9,-62.97 305.31,-52.24 316.29,-42.75"/>
<polygon fill="grey" stroke="grey" stroke-width="2" points="318.7,-45.29 323.98,-36.1 314.12,-39.99 318.7,-45.29"/>
</g>
<!-- 8&#45;&gt;7 -->
<g id="edge13" class="edge">
<title>8&#45;&gt;7</title>
<path fill="none" stroke="grey" stroke-width="2" d="M252.23,-143.7C253.77,-135.98 255.63,-126.71 257.35,-118.11"/>
<polygon fill="grey" stroke="grey" stroke-width="2" points="260.82,-118.6 259.35,-108.1 253.96,-117.22 260.82,-118.6"/>
</g>
<!-- 9 -->
<g id="node10" class="node">
<title>9</title>
<path fill="none" stroke="#d8a456" stroke-width="2" stroke-dasharray="5,2" d="M269.27,-252C269.27,-252 180.27,-252 180.27,-252 174.27,-252 168.27,-246 168.27,-240 168.27,-240 168.27,-228 168.27,-228 168.27,-222 174.27,-216 180.27,-216 180.27,-216 269.27,-216 269.27,-216 275.27,-216 281.27,-222 281.27,-228 281.27,-228 281.27,-240 281.27,-240 281.27,-246 275.27,-252 269.27,-252"/>
<text text-anchor="middle" x="224.77" y="-231.5" font-family="sans" font-size="10.00">samtools_sort_prog</text>
</g>
<!-- 9&#45;&gt;8 -->
<g id="edge14" class="edge">
<title>9&#45;&gt;8</title>
<path fill="none" stroke="grey" stroke-width="2" d="M230.7,-215.7C233.38,-207.9 236.6,-198.51 239.57,-189.83"/>
<polygon fill="grey" stroke="grey" stroke-width="2" points="242.97,-190.7 242.91,-180.1 236.35,-188.43 242.97,-190.7"/>
</g>
<!-- 10&#45;&gt;9 -->
<g id="edge16" class="edge">
<title>10&#45;&gt;9</title>
<path fill="none" stroke="grey" stroke-width="2" d="M251.12,-287.7C247.14,-279.73 242.32,-270.1 237.9,-261.26"/>
<polygon fill="grey" stroke="grey" stroke-width="2" points="240.93,-259.48 233.32,-252.1 234.67,-262.61 240.93,-259.48"/>
</g>
<!-- 11 -->
<g id="node12" class="node">
<title>11</title>
<path fill="none" stroke="#d85656" stroke-width="2" stroke-dasharray="5,2" d="M451.27,-108C451.27,-108 398.27,-108 398.27,-108 392.27,-108 386.27,-102 386.27,-96 386.27,-96 386.27,-84 386.27,-84 386.27,-78 392.27,-72 398.27,-72 398.27,-72 451.27,-72 451.27,-72 457.27,-72 463.27,-78 463.27,-84 463.27,-84 463.27,-96 463.27,-96 463.27,-102 457.27,-108 451.27,-108"/>
<text text-anchor="middle" x="424.77" y="-87.5" font-family="sans" font-size="10.00">bcftools_call</text>
</g>
<!-- 11&#45;&gt;0 -->
<g id="edge5" class="edge">
<title>11&#45;&gt;0</title>
<path fill="none" stroke="grey" stroke-width="2" d="M404.75,-71.7C394.65,-62.97 382.24,-52.24 371.25,-42.75"/>
<polygon fill="grey" stroke="grey" stroke-width="2" points="373.42,-39.99 363.56,-36.1 368.84,-45.29 373.42,-39.99"/>
</g>
<!-- 12&#45;&gt;11 -->
<g id="edge18" class="edge">
<title>12&#45;&gt;11</title>
<path fill="none" stroke="grey" stroke-width="2" d="M435.31,-143.7C433.77,-135.98 431.91,-126.71 430.19,-118.11"/>
<polygon fill="grey" stroke="grey" stroke-width="2" points="433.59,-117.22 428.19,-108.1 426.72,-118.6 433.59,-117.22"/>
</g>
<!-- 13 -->
<g id="node14" class="node">
<title>13</title>
<path fill="none" stroke="#d8a456" stroke-width="2" stroke-dasharray="5,2" d="M513.27,-252C513.27,-252 424.27,-252 424.27,-252 418.27,-252 412.27,-246 412.27,-240 412.27,-240 412.27,-228 412.27,-228 412.27,-222 418.27,-216 424.27,-216 424.27,-216 513.27,-216 513.27,-216 519.27,-216 525.27,-222 525.27,-228 525.27,-228 525.27,-240 525.27,-240 525.27,-246 519.27,-252 513.27,-252"/>
<text text-anchor="middle" x="468.77" y="-231.5" font-family="sans" font-size="10.00">samtools_sort_prog</text>
</g>
<!-- 13&#45;&gt;12 -->
<g id="edge19" class="edge">
<title>13&#45;&gt;12</title>
<path fill="none" stroke="grey" stroke-width="2" d="M461.36,-215.7C457.98,-207.81 453.9,-198.3 450.15,-189.55"/>
<polygon fill="grey" stroke="grey" stroke-width="2" points="453.26,-187.92 446.1,-180.1 446.82,-190.67 453.26,-187.92"/>
</g>
<!-- 14&#45;&gt;13 -->
<g id="edge21" class="edge">
<title>14&#45;&gt;13</title>
<path fill="none" stroke="grey" stroke-width="2" d="M428.87,-287.7C435.16,-279.39 442.82,-269.28 449.74,-260.14"/>
<polygon fill="grey" stroke="grey" stroke-width="2" points="452.57,-262.19 455.82,-252.1 446.99,-257.96 452.57,-262.19"/>
</g>
<!-- 15 -->
<g id="node16" class="node">
<title>15</title>
<path fill="none" stroke="#d85656" stroke-width="2" stroke-dasharray="5,2" d="M581.27,-108C581.27,-108 528.27,-108 528.27,-108 522.27,-108 516.27,-102 516.27,-96 516.27,-96 516.27,-84 516.27,-84 516.27,-78 522.27,-72 528.27,-72 528.27,-72 581.27,-72 581.27,-72 587.27,-72 593.27,-78 593.27,-84 593.27,-84 593.27,-96 593.27,-96 593.27,-102 587.27,-108 581.27,-108"/>
<text text-anchor="middle" x="554.77" y="-87.5" font-family="sans" font-size="10.00">bcftools_call</text>
</g>
<!-- 15&#45;&gt;0 -->
<g id="edge6" class="edge">
<title>15&#45;&gt;0</title>
<path fill="none" stroke="grey" stroke-width="2" d="M516.07,-76.16C477.41,-63.33 418.42,-43.76 380.47,-31.18"/>
<polygon fill="grey" stroke="grey" stroke-width="2" points="381.43,-27.81 370.84,-27.98 379.23,-34.45 381.43,-27.81"/>
</g>
<!-- 16&#45;&gt;15 -->
<g id="edge23" class="edge">
<title>16&#45;&gt;15</title>
<path fill="none" stroke="grey" stroke-width="2" d="M581.87,-143.7C577.77,-135.73 572.82,-126.1 568.28,-117.26"/>
<polygon fill="grey" stroke="grey" stroke-width="2" points="571.25,-115.4 563.57,-108.1 565.03,-118.6 571.25,-115.4"/>
</g>
<!-- 17 -->
<g id="node18" class="node">
<title>17</title>
<path fill="none" stroke="#d8a456" stroke-width="2" stroke-dasharray="5,2" d="M644.27,-252C644.27,-252 555.27,-252 555.27,-252 549.27,-252 543.27,-246 543.27,-240 543.27,-240 543.27,-228 543.27,-228 543.27,-222 549.27,-216 555.27,-216 555.27,-216 644.27,-216 644.27,-216 650.27,-216 656.27,-222 656.27,-228 656.27,-228 656.27,-240 656.27,-240 656.27,-246 650.27,-252 644.27,-252"/>
<text text-anchor="middle" x="599.77" y="-231.5" font-family="sans" font-size="10.00">samtools_sort_prog</text>
</g>
<!-- 17&#45;&gt;16 -->
<g id="edge24" class="edge">
<title>17&#45;&gt;16</title>
<path fill="none" stroke="grey" stroke-width="2" d="M597.55,-215.7C596.55,-207.98 595.36,-198.71 594.26,-190.11"/>
<polygon fill="grey" stroke="grey" stroke-width="2" points="597.72,-189.58 592.97,-180.1 590.77,-190.47 597.72,-189.58"/>
</g>
<!-- 18&#45;&gt;17 -->
<g id="edge26" class="edge">
<title>18&#45;&gt;17</title>
<path fill="none" stroke="grey" stroke-width="2" d="M578.69,-287.7C581.85,-279.81 585.65,-270.3 589.15,-261.55"/>
<polygon fill="grey" stroke="grey" stroke-width="2" points="592.47,-262.69 592.93,-252.1 585.97,-260.09 592.47,-262.69"/>
</g>
<!-- 19 -->
<g id="node20" class="node">
<title>19</title>
<path fill="none" stroke="#d85656" stroke-width="2" stroke-dasharray="5,2" d="M722.27,-108C722.27,-108 669.27,-108 669.27,-108 663.27,-108 657.27,-102 657.27,-96 657.27,-96 657.27,-84 657.27,-84 657.27,-78 663.27,-72 669.27,-72 669.27,-72 722.27,-72 722.27,-72 728.27,-72 734.27,-78 734.27,-84 734.27,-84 734.27,-96 734.27,-96 734.27,-102 728.27,-108 722.27,-108"/>
<text text-anchor="middle" x="695.77" y="-87.5" font-family="sans" font-size="10.00">bcftools_call</text>
</g>
<!-- 19&#45;&gt;0 -->
<g id="edge7" class="edge">
<title>19&#45;&gt;0</title>
<path fill="none" stroke="grey" stroke-width="2" d="M657.09,-81.31C588.95,-67.76 448.34,-39.8 381.14,-26.43"/>
<polygon fill="grey" stroke="grey" stroke-width="2" points="381.49,-22.93 371,-24.42 380.13,-29.8 381.49,-22.93"/>
</g>
<!-- 20&#45;&gt;19 -->
<g id="edge28" class="edge">
<title>20&#45;&gt;19</title>
<path fill="none" stroke="grey" stroke-width="2" d="M731.15,-143.7C725.63,-135.47 718.92,-125.48 712.84,-116.42"/>
<polygon fill="grey" stroke="grey" stroke-width="2" points="715.74,-114.46 707.26,-108.1 709.92,-118.36 715.74,-114.46"/>
</g>
<!-- 21 -->
<g id="node22" class="node">
<title>21</title>
<path fill="none" stroke="#d8a456" stroke-width="2" stroke-dasharray="5,2" d="M782.27,-252C782.27,-252 693.27,-252 693.27,-252 687.27,-252 681.27,-246 681.27,-240 681.27,-240 681.27,-228 681.27,-228 681.27,-222 687.27,-216 693.27,-216 693.27,-216 782.27,-216 782.27,-216 788.27,-216 794.27,-222 794.27,-228 794.27,-228 794.27,-240 794.27,-240 794.27,-246 788.27,-252 782.27,-252"/>
<text text-anchor="middle" x="737.77" y="-231.5" font-family="sans" font-size="10.00">samtools_sort_prog</text>
</g>
<!-- 21&#45;&gt;20 -->
<g id="edge29" class="edge">
<title>21&#45;&gt;20</title>
<path fill="none" stroke="grey" stroke-width="2" d="M739.01,-215.7C739.56,-207.98 740.22,-198.71 740.83,-190.11"/>
<polygon fill="grey" stroke="grey" stroke-width="2" points="744.33,-190.33 741.55,-180.1 737.35,-189.83 744.33,-190.33"/>
</g>
<!-- 22&#45;&gt;21 -->
<g id="edge31" class="edge">
<title>22&#45;&gt;21</title>
<path fill="none" stroke="grey" stroke-width="2" d="M729.49,-287.7C730.7,-279.98 732.16,-270.71 733.51,-262.11"/>
<polygon fill="grey" stroke="grey" stroke-width="2" points="736.99,-262.53 735.08,-252.1 730.07,-261.44 736.99,-262.53"/>
</g>
</g>
</svg>
